<svg width="378.07" height="77.07" xmlns="http://www.w3.org/2000/svg">

 <g>
  <title>background</title>
  <rect fill="none" id="canvas_background" height="602" width="802" y="-1" x="-1"/>
 </g>
 <g>
  <title>Layer 1</title>
  <g id="svg_20">
   <rect id="svg_21" height="1.68" width="112.65" y="68.63" x="0"/>
   <rect id="svg_22" height="1.68" width="112.65" y="68.63" x="265.42"/>
  </g>
  <text stroke="#000" transform="matrix(27.22521354304581,0,0,2.608673065488773,-5044.772882067761,-11.087213404667203) " xml:space="preserve" text-anchor="start" font-family="Helvetica, Arial, sans-serif" font-size="24" id="svg_23" y="27.035" x="185.535" stroke-width="0" fill="#000000"/>
  <g id="svg_50">
   <g transform="matrix(0.004617254526568582,0,0,0.004617254526568582,0,0) " id="svg_28">
    <path id="svg_29" d="m40774.67094,8350.16398l-20.03,0l0,-42.11l19.55,0c8.6,0 13.89,4.27 13.89,10.89l0,0.12c0,4.75 -2.53,7.4 -5.53,9.08c4.87,1.86 7.88,4.69 7.88,10.35l0,0.12c0,7.7 -6.25,11.55 -15.76,11.55zm4.21,-29.66c0,-2.77 -2.17,-4.33 -6.08,-4.33l-9.14,0l0,8.9l8.54,0c4.09,0 6.68,-1.32 6.68,-4.45l0,-0.12zm2.35,16.85c0,-2.83 -2.11,-4.57 -6.86,-4.57l-10.71,0l0,9.26l11.01,0c4.09,0 6.56,-1.44 6.56,-4.57l0,-0.12z"/>
    <path id="svg_30" d="m40797.94094,8350.16398l0,-42.11l9.26,0l0,33.68l20.99,0l0,8.42l-30.25,0l0,0.01z"/>
    <path id="svg_31" d="m40867.12094,8350.16398l-3.85,-9.44l-17.8,0l-3.85,9.44l-9.44,0l18.04,-42.41l8.54,0l18.05,42.41l-9.69,0zm-12.75,-31.28l-5.59,13.65l11.18,0l-5.59,-13.65z"/>
    <path id="svg_32" d="m40899.52094,8350.88398c-12.39,0 -21.59,-9.56 -21.59,-21.65l0,-0.12c-0.01,-11.98 9.02,-21.78 21.95,-21.78c7.94,0 12.69,2.65 16.6,6.5l-5.89,6.8c-3.25,-2.95 -6.56,-4.75 -10.77,-4.75c-7.1,0 -12.21,5.9 -12.21,13.11l0,0.12c0,7.22 4.99,13.23 12.21,13.23c4.81,0 7.76,-1.92 11.07,-4.93l5.89,5.96c-4.33,4.62 -9.14,7.51 -17.26,7.51z"/>
    <path id="svg_33" d="m40950.17094,8350.16398l-13.05,-17.93l-4.87,5.05l0,12.87l-9.26,0l0,-42.1l9.26,0l0,18.41l17.08,-18.41l11.19,0l-17.14,17.86l17.92,24.24l-11.13,0l0,0.01z"/>
    <path id="svg_34" d="m41004.97094,8350.16398l-20.03,0l0,-42.11l19.55,0c8.6,0 13.89,4.27 13.89,10.89l0,0.12c0,4.75 -2.53,7.4 -5.53,9.08c4.87,1.86 7.88,4.69 7.88,10.35l0,0.12c-0.01,7.7 -6.26,11.55 -15.76,11.55zm4.21,-29.66c0,-2.77 -2.17,-4.33 -6.08,-4.33l-9.14,0l0,8.9l8.54,0c4.09,0 6.68,-1.32 6.68,-4.45l0,-0.12zm2.34,16.85c0,-2.83 -2.11,-4.57 -6.86,-4.57l-10.7,0l0,9.26l11.01,0c4.09,0 6.56,-1.44 6.56,-4.57l0,-0.12l-0.01,0z"/>
    <path id="svg_35" d="m41028.39094,8350.16398l0,-42.11l9.26,0l0,42.1l-9.26,0l0,0.01z"/>
    <path id="svg_36" d="m41073.11094,8350.16398l-9.02,-13.47l-7.28,0l0,13.47l-9.26,0l0,-42.11l19.25,0c9.92,0 15.88,5.23 15.88,13.89l0,0.12c0,6.8 -3.67,11.07 -9.02,13.05l10.29,15.04l-10.84,0l0,0.01zm0.18,-27.73c0,-3.97 -2.77,-6.02 -7.28,-6.02l-9.2,0l0,12.09l9.38,0c4.51,0 7.1,-2.41 7.1,-5.95l0,-0.12z"/>
    <path id="svg_37" d="m41107.07094,8350.16398l-16.42,0l0,-42.11l16.42,0c13.23,0 22.38,9.08 22.38,20.93l0,0.12c0,11.85 -9.14,21.06 -22.38,21.06zm12.7,-21.06c0,-7.46 -5.11,-12.69 -12.69,-12.69l-7.16,0l0,25.38l7.16,0c7.58,0 12.69,-5.11 12.69,-12.57l0,-0.12z"/>
   </g>
   <g transform="matrix(0.004617254526568582,0,0,0.004617254526568582,0,0) " id="svg_38">
    <path id="svg_39" d="m40887.89094,8384.40398c-4.24,0 -7.37,-3.34 -7.37,-7.58c0,-4.2 3.11,-7.62 7.43,-7.62c2.67,0 4.26,0.94 5.73,2.33l-1.13,1.22c-1.24,-1.18 -2.62,-2.02 -4.62,-2.02c-3.25,0 -5.69,2.62 -5.69,6.05s2.46,6.09 5.69,6.09c2.02,0 3.34,-0.78 4.75,-2.12l1.09,1.07c-1.53,1.55 -3.21,2.58 -5.88,2.58z"/>
    <path id="svg_40" d="m40898.26094,8369.45398l1.66,0l0,13.16l8.27,0l0,1.53l-9.93,0l0,-14.69z"/>
    <path id="svg_41" d="m40918.67094,8384.40398c-4.47,0 -7.47,-3.51 -7.47,-7.58s3.04,-7.62 7.52,-7.62s7.47,3.51 7.47,7.58s-3.05,7.62 -7.52,7.62zm0,-13.67c-3.36,0 -5.75,2.69 -5.75,6.05s2.44,6.09 5.79,6.09s5.75,-2.69 5.75,-6.05s-2.43,-6.09 -5.79,-6.09z"/>
    <path id="svg_42" d="m40935.80094,8384.15398l-1.68,0l0,-13.17l-4.93,0l0,-1.53l11.55,0l0,1.53l-4.93,0l0,13.17l-0.01,0z"/>
    <path id="svg_43" d="m40946.86094,8377.53398l0,6.61l-1.66,0l0,-14.7l1.66,0l0,6.53l8.48,0l0,-6.53l1.66,0l0,14.7l-1.66,0l0,-6.61l-8.48,0z"/>
    <path id="svg_44" d="m40964.62094,8369.45398l0,14.7l-1.66,0l0,-14.7l1.66,0z"/>
    <path id="svg_45" d="m40981.34094,8369.45398l1.62,0l0,14.7l-1.32,0l-9.49,-12.05l0,12.05l-1.62,0l0,-14.7l1.55,0l9.26,11.78l0,-11.78z"/>
    <path id="svg_46" d="m40995.57094,8384.40398c-4.62,0 -7.47,-3.36 -7.47,-7.58c0,-4.05 2.96,-7.62 7.37,-7.62c2.48,0 4.01,0.71 5.48,1.95l-1.07,1.26c-1.13,-0.99 -2.39,-1.68 -4.47,-1.68c-3.25,0 -5.58,2.75 -5.58,6.05c0,3.53 2.25,6.13 5.82,6.13c1.68,0 3.23,-0.65 4.24,-1.47l0,-3.65l-4.47,0l0,-1.49l6.07,0l0,5.86c-1.38,1.21 -3.44,2.24 -5.92,2.24z"/>
   </g>
   <g transform="matrix(0.004617254526568582,0,0,0.004617254526568582,0,0) " id="svg_47">
    <rect id="svg_48" height="1.68" width="112.65" y="8375.96398" x="40751.96094"/>
    <rect id="svg_49" height="1.68" width="112.65" y="8375.96398" x="41017.38094"/>
   </g>
  </g>
  <text stroke="#000" transform="matrix(1.897907826140596,0,0,1.7403123378753662,-61.44861608417466,-7.426258139312267) " xml:space="preserve" text-anchor="start" font-family="Helvetica, Arial, sans-serif" font-size="24" id="svg_51" y="32.035" x="37.535" fill-opacity="null" stroke-opacity="null" stroke-width="0" fill="#000000">Personal Website</text>
 </g>
</svg>